<?xml version="1.0" encoding="utf-8"?>
<!DOCTYPE svg PUBLIC "-//W3C//DTD SVG 1.1//EN" "http://www.w3.org/Graphics/SVG/1.1/DTD/svg11.dtd">
<svg version="1.1" xmlns="http://www.w3.org/2000/svg" xmlns:xlink="http://www.w3.org/1999/xlink" x="0px" y="0px"
	 width="150px" height="450px" viewBox="0 225 150 450" enable-background="new 0 225 150 450" xml:space="preserve">
<style>

	.white {
		fill: #fff;
	}

	.light-gray {
		fill: #ddd;
	}

	.dark-gray {
		fill: #222;
	}

</style>

<g>
	<circle class="light-gray" cx="75" cy="600" r="75"/>
	<g>
		<g>
			<defs>
				<path id="SVGID_1_" d="M75,537.5c17.361,0,32.118,6.076,44.271,18.229C131.424,567.882,137.5,582.639,137.5,600
					c0,17.188-6.076,31.9-18.229,44.141C107.118,656.381,92.361,662.5,75,662.5c-17.188,0-31.901-6.119-44.141-18.359
					S12.5,617.188,12.5,600c0-17.361,6.12-32.118,18.359-44.271C43.099,543.576,57.812,537.5,75,537.5L75,537.5"/>
			</defs>
			<clipPath id="SVGID_2_">
				<use xlink:href="#SVGID_1_"  overflow="visible"/>
			</clipPath>
			<path clip-path="url(#SVGID_2_)" class="white" d="M112.784,653.614c19.318,6.817,28.977,12.595,28.977,17.329V686H75
				H8.239v-15.057c0-4.734,9.659-10.512,28.977-17.329c8.902-3.22,14.962-6.487,18.182-9.802s4.829-7.812,4.829-13.494
				c0-2.084-1.041-4.403-3.124-6.961c-2.084-2.556-3.599-6.012-4.546-10.368c-0.189-1.136-0.615-1.989-1.279-2.558
				c-0.663-0.567-1.325-0.947-1.988-1.136s-1.325-0.993-1.989-2.414c-0.663-1.421-1.089-3.457-1.279-6.108
				c0-1.516,0.237-2.746,0.71-3.693c0.474-0.947,0.9-1.515,1.279-1.704l0.568-0.568c-0.758-4.735-1.326-8.901-1.704-12.5
				c-0.38-5.114,1.562-10.417,5.823-15.909c4.261-5.491,11.695-8.238,22.301-8.238s18.087,2.746,22.443,8.238
				c4.355,5.492,6.25,10.795,5.682,15.909l-1.705,12.5c1.705,0.758,2.558,2.746,2.558,5.966c-0.189,2.651-0.615,4.688-1.278,6.108
				s-1.326,2.226-1.99,2.414c-0.662,0.189-1.324,0.569-1.987,1.136c-0.663,0.569-1.09,1.422-1.279,2.558
				c-0.758,4.546-2.226,8.05-4.403,10.511c-2.179,2.463-3.268,4.734-3.268,6.818c0,5.682,1.657,10.18,4.972,13.494
				C98.059,647.127,104.072,650.395,112.784,653.614L112.784,653.614"/>
		</g>
		<g>
			<defs>
				<path id="SVGID_3_" d="M75,537.5c17.361,0,32.118,6.076,44.271,18.229C131.424,567.882,137.5,582.639,137.5,600
					c0,17.188-6.076,31.9-18.229,44.141C107.118,656.381,92.361,662.5,75,662.5c-17.188,0-31.901-6.119-44.141-18.359
					S12.5,617.188,12.5,600c0-17.361,6.12-32.118,18.359-44.271C43.099,543.576,57.812,537.5,75,537.5L75,537.5"/>
			</defs>
			<clipPath id="SVGID_4_">
				<use xlink:href="#SVGID_3_"  overflow="visible"/>
			</clipPath>
			<path clip-path="url(#SVGID_4_)" class="dark-gray" d="M75,537.5c17.361,0,32.118,6.076,44.271,18.229
				C131.424,567.882,137.5,582.639,137.5,600c0,17.188-6.076,31.9-18.229,44.141C107.118,656.381,92.361,662.5,75,662.5
				c-17.188,0-31.901-6.119-44.141-18.359S12.5,617.188,12.5,600c0-17.361,6.12-32.118,18.359-44.271
				C43.099,543.576,57.812,537.5,75,537.5L75,537.5 M108.594,566.146L108.594,566.146 M27.604,600
				c0,11.459,3.56,21.441,10.677,29.948l66.927-66.927c-8.681-7.118-18.75-10.678-30.209-10.678
				c-13.194,0-24.393,4.645-33.594,13.932C32.204,575.564,27.604,586.806,27.604,600L27.604,600 M41.406,633.594L41.406,633.594
				 M75,647.396c13.194,0,24.436-4.645,33.724-13.934c9.289-9.287,13.933-20.441,13.933-33.463c0-11.285-3.559-21.354-10.677-30.209
				l-66.928,66.928C53.559,643.837,63.541,647.396,75,647.396L75,647.396"/>
		</g>
	</g>
</g>
<g>
	<path class="white" d="M75,375c20.833,0,38.541,7.344,53.125,22.031C142.708,411.719,150,429.375,150,450
		c0,20.833-7.292,38.542-21.875,53.125C113.541,517.708,95.833,525,75,525c-20.625,0-38.281-7.292-52.969-21.875S0,470.833,0,450
		c0-20.625,7.344-38.281,22.031-52.969C36.718,382.343,54.375,375,75,375L75,375"/>
	<path class="light-gray" d="M75,375c20.833,0,38.541,7.344,53.125,22.031C142.708,411.719,150,429.375,150,450
		c0,20.833-7.292,38.542-21.875,53.125C113.541,517.708,95.833,525,75,525c-20.625,0-38.281-7.292-52.969-21.875S0,470.833,0,450
		c0-20.625,7.344-38.281,22.031-52.969C36.718,382.343,54.375,375,75,375L75,375 M139.062,450c0-13.75-4.062-26.198-12.188-37.344
		c-8.125-11.146-18.646-18.906-31.562-23.281c-1.875,2.5-2.709,4.167-2.5,5c0.416,3.958,1.354,6.614,2.812,7.969
		c1.458,1.354,3.021,1.719,4.688,1.094l5-1.875c0,0,1.041-0.104,3.125-0.312c2.291,2.5,2.291,4.948,0,7.344
		c-2.292,2.396-4.636,5.312-7.031,8.75s-2.448,7.448-0.156,12.031c3.542,6.667,8.542,10,15,10c2.917,0.208,5.156,2.083,6.72,5.625
		c1.562,3.542,2.447,6.98,2.655,10.312c1.042,8.334,0.312,15.625-2.188,21.875c-2.291,4.584-1.562,8.543,2.188,11.875
		C134.583,477.396,139.062,464.375,139.062,450L139.062,450 M66.25,386.875c-11.667,1.458-22.031,5.833-31.094,13.125
		s-15.677,16.354-19.844,27.188c0.625,0,1.771,0.104,3.438,0.312c1.667,0.208,3.125,0.364,4.375,0.469s2.604,0.312,4.062,0.625
		c1.459,0.312,2.709,0.73,3.75,1.25c1.042,0.521,1.667,1.198,1.875,2.031c0.417,1.25-0.312,3.594-2.188,7.031
		c-1.875,3.437-2.812,6.614-2.812,9.531c0,3.125,1.979,6.042,5.938,8.75c3.959,2.707,5.938,5.104,5.938,7.188
		c0,2.916,0.417,6.457,1.25,10.625c0.834,4.166,1.25,6.457,1.25,6.875c0,1.25,1.875,4.062,5.625,8.438s6.459,6.562,8.125,6.562
		c1.042,0,1.615-1.146,1.719-3.438c0.104-2.293,0-5.105-0.312-8.438c-0.312-3.334-0.469-5.418-0.469-6.25
		c0-3.334,0.729-7.188,2.188-11.562c1.25-4.375,4.323-8.021,9.219-10.938c4.896-2.918,7.76-5.312,8.594-7.188
		c1.666-3.542,2.136-6.719,1.406-9.531c-0.729-2.812-1.615-5.052-2.656-6.719c-1.042-1.667-2.812-3.125-5.312-4.375
		s-4.636-2.135-6.406-2.656s-3.698-0.99-5.781-1.406s-3.229-0.625-3.438-0.625c-1.666-0.625-3.854-0.989-6.562-1.094
		c-2.708-0.104-4.583,0.052-5.625,0.469c-1.041,0.417-2.448-0.156-4.219-1.719c-1.771-1.563-2.656-3.073-2.656-4.531
		c0-1.042,0.781-2.448,2.344-4.219c1.563-1.771,3.385-3.698,5.469-5.781c2.083-2.083,3.541-3.646,4.375-4.688
		c0.833-1.458,1.719-2.552,2.656-3.281c0.937-0.729,2.083-1.562,3.438-2.5s2.76-2.031,4.219-3.281
		c0.416-0.417,1.719-1.302,3.906-2.656C64.219,389.115,65.625,387.917,66.25,386.875L66.25,386.875 M55,510.938
		c6.875,2.083,13.541,3.125,20,3.125c13.333,0,25.104-3.542,35.312-10.625c-2.709-4.583-8.854-6.354-18.438-5.312
		c-2.5,0.208-5.886,1.094-10.156,2.656c-4.271,1.562-6.719,2.447-7.344,2.656c-7.709,1.666-11.667,2.5-11.875,2.5
		c-1.25,0.207-2.604,0.938-4.062,2.188C56.979,509.375,55.833,510.312,55,510.938L55,510.938"/>
	<path class="dark-gray" d="M63.406,475.62c1.021-1.02,2.262-1.53,3.718-1.53c1.459,0,2.771,0.511,3.938,1.53
		c2.332,2.476,2.332,5.023,0,7.646l-4.594,4.367c-4.083,4.077-8.896,6.117-14.438,6.117c-5.688,0-10.573-2.04-14.656-6.117
		s-6.125-8.882-6.125-14.416c0-5.68,2.042-10.556,6.125-14.635l16.187-16.163c5.105-4.954,10.355-7.756,15.75-8.412
		c5.396-0.655,10.062,0.911,14.001,4.696c1.166,1.165,1.75,2.477,1.75,3.933c0,1.456-0.584,2.766-1.75,3.932
		c-2.625,2.33-5.177,2.33-7.656,0c-3.646-3.495-8.458-2.257-14.438,3.714l-16.187,15.945c-1.896,1.894-2.844,4.222-2.844,6.989
		s0.948,5.024,2.844,6.771c1.896,1.893,4.191,2.84,6.89,2.84c2.698,0,4.996-0.947,6.891-2.84L63.406,475.62 M112.625,412.93
		c4.083,4.078,6.125,8.883,6.125,14.417c0,5.678-2.042,10.556-6.125,14.636l-17.281,17.254c-5.396,5.241-10.864,7.863-16.406,7.863
		c-4.52,0-8.604-1.82-12.25-5.461c-1.02-1.018-1.531-2.256-1.531-3.712c0-1.458,0.511-2.768,1.531-3.931
		c1.021-1.021,2.297-1.529,3.829-1.529c1.531,0,2.808,0.508,3.828,1.529c3.646,3.492,8.093,2.619,13.344-2.621l17.28-17.039
		c2.042-2.039,3.063-4.37,3.063-6.99c0-2.767-1.021-5.024-3.063-6.771c-1.75-1.894-3.792-3.021-6.125-3.387
		c-2.333-0.364-4.521,0.401-6.562,2.293l-5.469,5.461c-1.167,1.02-2.479,1.53-3.937,1.53c-1.459,0-2.699-0.51-3.72-1.53
		c-2.479-2.475-2.479-5.024,0-7.645l5.469-5.461c3.938-3.933,8.567-5.788,13.891-5.57
		C103.839,406.485,108.541,408.707,112.625,412.93L112.625,412.93"/>
</g>
<g>
	<circle class="light-gray" cx="75" cy="300" r="75"/>
	<path class="white" d="M100.542,264.75c-1.195,0-2.354,0.198-3.511,0.347C92.586,257.253,84.368,252,75.042,252
		c-9.524,0-17.748,5.304-22.125,13.075c-1.121-0.149-2.238-0.325-3.375-0.325c-14.064,0-25.5,11.43-25.5,25.5s11.436,25.5,25.5,25.5
		h51c14.07,0,25.5-11.43,25.5-25.5S114.612,264.75,100.542,264.75z"/>
	<path class="dark-gray" d="M100.5,264.75c-1.195,0-2.354,0.198-3.511,0.347C92.544,257.253,84.326,252,75,252
		c-9.523,0-17.747,5.304-22.124,13.075c-1.122-0.149-2.238-0.325-3.376-0.325c-14.063,0-25.5,11.43-25.5,25.5s11.437,25.5,25.5,25.5
		h51c14.07,0,25.5-11.43,25.5-25.5S114.57,264.75,100.5,264.75z M100.5,303h-51c-7.029,0-12.75-5.728-12.75-12.75
		c0-6.996,6.193-12.376,12.763-12.574c0.026,3.012,0.548,5.95,1.594,8.74l11.941-4.456c-0.53-1.421-0.797-2.917-0.797-4.459
		c0-7.022,5.721-12.75,12.75-12.75c4.128,0,7.851,2.043,10.204,5.231C79.048,274.638,75,281.947,75,290.25h12.75
		c0-7.022,5.728-12.75,12.75-12.75s12.75,5.728,12.75,12.75S107.522,303,100.5,303z"/>
	<polygon class="dark-gray" points="81.382,334.875 94.125,334.875 75.013,315.75 55.881,334.875 68.631,334.875 68.631,354 
		81.382,354 	"/>
</g>
</svg>
